<svg width="102" height="52" viewBox="0 0 102 52" fill="none" xmlns="http://www.w3.org/2000/svg">
<g filter="url(#filter0_d_3_2826)">
<rect x="5.5" y="10.5" width="82" height="32" stroke="white" stroke-width="3"/>
<path d="M24.1054 35.22C22.9187 35.22 21.9854 34.9867 21.3054 34.52C20.6387 34.0533 20.1721 33.42 19.9054 32.62C19.6387 31.8067 19.5054 30.8733 19.5054 29.82V24.04C19.5054 22.9333 19.6387 21.9733 19.9054 21.16C20.1721 20.3467 20.6387 19.72 21.3054 19.28C21.9854 18.84 22.9187 18.62 24.1054 18.62C25.2254 18.62 26.0987 18.8133 26.7254 19.2C27.3654 19.5733 27.8187 20.1133 28.0854 20.82C28.3521 21.5267 28.4854 22.3467 28.4854 23.28V24.64H25.6454V23.24C25.6454 22.7867 25.6187 22.3733 25.5654 22C25.5254 21.6267 25.3987 21.3333 25.1854 21.12C24.9854 20.8933 24.6321 20.78 24.1254 20.78C23.6187 20.78 23.2454 20.9 23.0054 21.14C22.7787 21.3667 22.6321 21.68 22.5654 22.08C22.4987 22.4667 22.4654 22.9067 22.4654 23.4V30.44C22.4654 31.0267 22.5121 31.5133 22.6054 31.9C22.6987 32.2733 22.8654 32.56 23.1054 32.76C23.3587 32.9467 23.6987 33.04 24.1254 33.04C24.6187 33.04 24.9654 32.9267 25.1654 32.7C25.3787 32.46 25.5121 32.1467 25.5654 31.76C25.6187 31.3733 25.6454 30.94 25.6454 30.46V29H28.4854V30.3C28.4854 31.26 28.3587 32.1133 28.1054 32.86C27.8521 33.5933 27.4054 34.1733 26.7654 34.6C26.1387 35.0133 25.2521 35.22 24.1054 35.22ZM32.5462 35V18.8H36.4262C37.5195 18.8 38.4395 18.9333 39.1862 19.2C39.9462 19.4533 40.5195 19.8933 40.9062 20.52C41.3062 21.1467 41.5062 22 41.5062 23.08C41.5062 23.7333 41.4462 24.32 41.3262 24.84C41.2062 25.36 40.9995 25.8067 40.7062 26.18C40.4262 26.54 40.0328 26.82 39.5262 27.02L41.7862 35H38.8262L36.8662 27.58H35.5062V35H32.5462ZM35.5062 25.72H36.4262C36.9995 25.72 37.4528 25.64 37.7862 25.48C38.1328 25.3067 38.3795 25.04 38.5262 24.68C38.6728 24.3067 38.7462 23.8333 38.7462 23.26C38.7462 22.4467 38.5928 21.84 38.2862 21.44C37.9928 21.0267 37.4262 20.82 36.5862 20.82H35.5062V25.72ZM45.8371 35V18.8H48.7571V35H45.8371ZM57.3449 35.22C56.3716 35.22 55.5583 35.0333 54.9049 34.66C54.2516 34.2733 53.7583 33.7133 53.4249 32.98C53.0916 32.2467 52.9049 31.3467 52.8649 30.28L55.4049 29.78C55.4316 30.4067 55.5049 30.96 55.6249 31.44C55.7583 31.92 55.9516 32.2933 56.2049 32.56C56.4716 32.8133 56.8183 32.94 57.2449 32.94C57.7249 32.94 58.0649 32.8 58.2649 32.52C58.4649 32.2267 58.5649 31.86 58.5649 31.42C58.5649 30.7133 58.4049 30.1333 58.0849 29.68C57.7649 29.2267 57.3383 28.7733 56.8049 28.32L54.7649 26.52C54.1916 26.0267 53.7316 25.48 53.3849 24.88C53.0516 24.2667 52.8849 23.5133 52.8849 22.62C52.8849 21.34 53.2583 20.3533 54.0049 19.66C54.7516 18.9667 55.7716 18.62 57.0649 18.62C57.8249 18.62 58.4583 18.74 58.9649 18.98C59.4716 19.2067 59.8716 19.5267 60.1649 19.94C60.4716 20.3533 60.6983 20.8267 60.8449 21.36C60.9916 21.88 61.0849 22.4333 61.1249 23.02L58.6049 23.46C58.5783 22.9533 58.5183 22.5 58.4249 22.1C58.3449 21.7 58.1916 21.3867 57.9649 21.16C57.7516 20.9333 57.4316 20.82 57.0049 20.82C56.5649 20.82 56.2249 20.9667 55.9849 21.26C55.7583 21.54 55.6449 21.8933 55.6449 22.32C55.6449 22.8667 55.7583 23.32 55.9849 23.68C56.2116 24.0267 56.5383 24.3867 56.9649 24.76L58.9849 26.54C59.6516 27.1 60.2183 27.76 60.6849 28.52C61.1649 29.2667 61.4049 30.1733 61.4049 31.24C61.4049 32.0133 61.2316 32.7 60.8849 33.3C60.5516 33.9 60.0783 34.3733 59.4649 34.72C58.8649 35.0533 58.1583 35.22 57.3449 35.22ZM65.1477 35V18.8H69.9077C70.8811 18.8 71.6677 18.98 72.2677 19.34C72.8811 19.7 73.3277 20.2267 73.6077 20.92C73.9011 21.6 74.0477 22.4267 74.0477 23.4C74.0477 24.4533 73.8677 25.3067 73.5077 25.96C73.1477 26.6 72.6411 27.0667 71.9877 27.36C71.3477 27.6533 70.5877 27.8 69.7077 27.8H68.1077V35H65.1477ZM68.1077 25.72H69.2277C69.7611 25.72 70.1744 25.6467 70.4677 25.5C70.7744 25.34 70.9811 25.0933 71.0877 24.76C71.2077 24.4133 71.2677 23.9533 71.2677 23.38C71.2677 22.7933 71.2211 22.32 71.1277 21.96C71.0477 21.5867 70.8611 21.3133 70.5677 21.14C70.2877 20.9667 69.8411 20.88 69.2277 20.88H68.1077V25.72Z" fill="white"/>
<path d="M93.5 38V33.5H96.5V1.5H14.5V4.5H10.5" stroke="white" stroke-width="3"/>
</g>
<defs>
<filter id="filter0_d_3_2826" x="0" y="0" width="102" height="52" filterUnits="userSpaceOnUse" color-interpolation-filters="sRGB">
<feFlood flood-opacity="0" result="BackgroundImageFix"/>
<feColorMatrix in="SourceAlpha" type="matrix" values="0 0 0 0 0 0 0 0 0 0 0 0 0 0 0 0 0 0 127 0" result="hardAlpha"/>
<feOffset dy="4"/>
<feGaussianBlur stdDeviation="2"/>
<feComposite in2="hardAlpha" operator="out"/>
<feColorMatrix type="matrix" values="0 0 0 0 0 0 0 0 0 0 0 0 0 0 0 0 0 0 0.25 0"/>
<feBlend mode="normal" in2="BackgroundImageFix" result="effect1_dropShadow_3_2826"/>
<feBlend mode="normal" in="SourceGraphic" in2="effect1_dropShadow_3_2826" result="shape"/>
</filter>
</defs>
</svg>
